Coordinates
version=1
nRows=39
nColumns=30
inDegrees=yes

Units are S.I. units (second, meters, Newtons, ...)
Angles are in degrees.

endheader
time	floatyaw	floatroll	floatpitch	floatx	floaty	floatz	pro_sup_l	deviation_l	flexion_l	cmc_flexion_l	cmc_abduction_l	mp_flexion_l	ip_flexion_l	2mcp_flexion_l	2mcp_abduction_l	2pm_flexion_l	2md_flexion_l	3mcp_flexion_l	3mcp_abduction_l	3pm_flexion_l	3md_flexion_l	4mcp_flexion_l	4mcp_abduction_l	4pm_flexion_l	4md_flexion_l	5mcp_flexion_l	5mcp_abduction_l	5pm_flexion_l	5md_flexion_l
-0.495000	-160.147433	-5.066637	-73.570646	0.071562	-0.177559	-0.021994	101.344361	5.043185	0.009253	11.293557	10.884808	-26.480373	-41.720143	31.466046	7.308948	43.487658	31.113229	24.952775	4.431137	46.494728	31.606208	14.179012	-4.506988	54.285007	37.654775	2.988665	-8.254821	62.099324	43.729785
-0.485000	-160.147433	-5.066637	-73.570646	0.071579	-0.177555	-0.021999	101.339149	5.032775	0.002283	11.291979	10.863431	-26.492313	-41.708706	31.459120	7.305709	43.472264	31.085712	24.926418	4.431229	46.470614	31.590196	14.151547	-4.504748	54.245346	37.626168	2.957310	-8.253325	62.067982	43.709493
-0.475000	-160.147433	-5.066637	-73.570646	0.071599	-0.177554	-0.022015	101.325042	5.013068	-0.003930	11.282308	10.840776	-26.504408	-41.690624	31.445879	7.297852	43.458427	31.058467	24.896636	4.430108	46.441773	31.571552	14.118441	-4.500426	54.192765	37.595040	2.906445	-8.253723	62.033519	43.693367
-0.465000	-160.147433	-5.066637	-73.570646	0.071618	-0.177557	-0.022045	101.308583	4.986351	-0.014212	11.264038	10.816319	-26.515892	-41.669850	31.429616	7.287225	43.449590	31.034099	24.870448	4.427045	46.409464	31.552321	14.083927	-4.494108	54.130615	37.563619	2.842638	-8.256907	61.997827	43.682886
-0.455000	-160.147433	-5.066637	-73.570646	0.071634	-0.177566	-0.022087	101.297268	4.955509	-0.033181	11.239366	10.790981	-26.527187	-41.652187	31.412156	7.278154	43.448929	31.013012	24.852959	4.422173	46.378774	31.534625	14.051709	-4.486582	54.068004	37.534603	2.774725	-8.263688	61.967456	43.678283
-0.445000	-160.147433	-5.066637	-73.570646	0.071645	-0.177584	-0.022140	101.296387	4.922999	-0.062382	11.212565	10.767046	-26.539945	-41.643182	31.392724	7.275182	43.457470	30.993175	24.844249	4.416672	46.355494	31.519436	14.022759	-4.479271	54.016277	37.510509	2.709135	-8.274308	61.951030	43.679143
-0.435000	-160.147433	-5.066637	-73.570646	0.071650	-0.177608	-0.022199	101.307196	4.890373	-0.098893	11.188091	10.746797	-26.555687	-41.645580	31.368347	7.280306	43.472906	30.970932	24.838521	4.412531	46.341498	31.505499	13.994677	-4.473940	53.983063	37.492493	2.646733	-8.288034	61.954154	43.684438
-0.425000	-160.147433	-5.066637	-73.570646	0.071652	-0.177635	-0.022257	101.327129	4.858646	-0.136210	11.168454	10.730980	-26.574364	-41.657795	31.335053	7.291438	43.490203	30.941964	24.825865	4.411778	46.332097	31.489004	13.962652	-4.472226	53.967616	37.479182	2.582525	-8.303142	61.974792	43.691580
-0.415000	-160.147433	-5.066637	-73.570646	0.071657	-0.177659	-0.022313	101.351547	4.829295	-0.166823	11.152992	10.718540	-26.594212	-41.674517	31.289259	7.303162	43.503722	30.901886	24.795857	4.415454	46.317785	31.464604	13.921377	-4.474994	53.960494	37.466438	2.508234	-8.317408	62.002322	43.695514
-0.405000	-160.147433	-5.066637	-73.570646	0.071671	-0.177672	-0.022370	101.376100	4.805268	-0.185189	11.138007	10.707957	-26.612836	-41.689051	31.229173	7.309428	43.509330	30.846950	24.741609	4.422872	46.289575	31.427863	13.867068	-4.481654	53.947847	37.448680	2.416625	-8.328917	62.021605	43.689656
-0.395000	-160.147433	-5.066637	-73.570646	0.071696	-0.177668	-0.022434	101.399062	4.791206	-0.189829	11.118112	10.699052	-26.628283	-41.695887	31.155873	7.306593	43.505124	30.775454	24.662604	4.431573	46.244529	31.378158	13.798768	-4.489790	53.917766	37.421358	2.305489	-8.336756	62.020335	43.669154
-0.385000	-160.147433	-5.066637	-73.570646	0.071730	-0.177645	-0.022516	101.423411	4.792378	-0.183825	11.088300	10.693770	-26.639282	-41.692345	31.073126	7.295024	43.490737	30.689284	24.564865	4.437972	46.187918	31.320061	13.718313	-4.495608	53.865194	37.383055	2.178980	-8.341100	61.995536	43.634274
-0.375000	-160.147433	-5.066637	-73.570646	0.071769	-0.177600	-0.022629	101.458646	4.812812	-0.173510	11.046207	10.695317	-26.645035	-41.679182	30.985269	7.278428	43.466548	30.594046	24.458050	4.438402	46.130711	31.261610	13.629083	-4.495337	53.792904	37.335631	2.045484	-8.342480	61.955237	43.590727
-0.365000	-160.147433	-5.066637	-73.570646	0.071808	-0.177536	-0.022785	101.522011	4.853908	-0.165652	10.993865	10.706321	-26.645285	-41.660520	30.893856	7.261442	43.434212	30.497250	24.350962	4.430215	46.083825	31.209919	13.534672	-4.487019	53.708515	37.282294	1.913715	-8.340694	61.914334	43.545976
-0.355000	-160.147433	-5.066637	-73.570646	0.071841	-0.177452	-0.023000	101.637883	4.914683	-0.163911	10.937843	10.727373	-26.640920	-41.643280	30.795371	7.246967	43.398432	30.405802	24.248153	4.412652	46.052029	31.166631	13.438762	-4.471688	53.619656	37.225111	1.790087	-8.334229	61.887156	43.503978
-0.345000	-160.147433	-5.066637	-73.570646	0.071864	-0.177342	-0.023292	101.833435	4.993793	-0.165950	10.886869	10.757049	-26.634732	-41.636252	30.682009	7.234557	43.368162	30.324548	24.149735	4.387234	46.030210	31.125918	13.346403	-4.453198	53.529870	37.163666	1.678790	-8.320686	61.880782	43.462158
-0.335000	-160.147433	-5.066637	-73.570646	0.071868	-0.177192	-0.023685	102.130158	5.092698	-0.162899	10.847272	10.793441	-26.631880	-41.648906	30.545310	7.220496	43.355250	30.256492	24.054182	4.357427	46.003582	31.076278	13.265356	-4.436616	53.436691	37.095289	1.582918	-8.297778	61.892221	43.412760
-0.325000	-160.147433	-5.066637	-73.570646	0.071838	-0.176977	-0.024218	102.534175	5.219156	-0.142388	10.818367	10.836042	-26.639712	-41.689903	30.380159	7.199389	43.370345	30.203805	23.961646	4.327569	45.952255	31.005359	13.205586	-4.425696	53.332093	37.016137	1.503614	-8.264064	61.910530	43.347850
-0.315000	-160.147433	-5.066637	-73.570646	0.071750	-0.176664	-0.024947	103.030517	5.390182	-0.094382	10.790570	10.886567	-26.666781	-41.765182	30.186514	7.166421	43.418116	30.168261	23.875043	4.301276	45.859153	30.905646	13.175852	-4.420407	53.205153	36.922294	1.436327	-8.218887	61.922868	43.264858
-0.305000	-160.147433	-5.066637	-73.570646	0.071575	-0.176218	-0.025937	103.584746	5.633066	-0.017053	10.747695	10.948312	-26.721120	-41.875959	29.968305	7.119082	43.494763	30.150326	23.797996	4.279927	45.718478	30.778263	13.178609	-4.415783	53.046731	36.810773	1.367347	-8.161577	61.921332	43.168790
-0.295000	-160.147433	-5.066637	-73.570646	0.071278	-0.175603	-0.027255	104.150844	5.983061	0.080369	10.672188	11.024666	-26.807888	-42.017138	29.731338	7.057433	43.589488	30.147533	23.731588	4.262059	45.540279	30.632780	13.206831	-4.403155	52.854579	36.680578	1.275837	-8.090462	61.906245	43.069013
-0.285000	-160.147433	-5.066637	-73.570646	0.070824	-0.174791	-0.028951	104.681304	6.477597	0.178607	10.549921	11.117496	-26.926202	-42.175828	29.482530	6.982951	43.688740	30.153449	23.673457	4.244144	45.347102	30.482752	13.246997	-4.373695	52.635166	36.533528	1.144152	-8.002417	61.882713	42.971968
-0.275000	-160.147433	-5.066637	-73.570646	0.070179	-0.173755	-0.031044	105.135822	7.149168	0.251296	10.371370	11.225647	-27.065031	-42.328912	29.231228	6.896917	43.779692	30.158116	23.621582	4.222227	45.162397	30.338970	13.289521	-4.322586	52.398189	36.373772	0.973450	-7.893383	61.851105	42.874101
-0.265000	-160.147433	-5.066637	-73.570646	0.069309	-0.172472	-0.033520	105.486826	8.019989	0.266816	10.128833	11.344657	-27.199559	-42.440297	28.991105	6.799465	43.849992	30.149620	23.581084	4.193302	44.995851	30.203818	13.342183	-4.251427	52.143911	36.205206	0.796390	-7.759652	61.796139	42.759236
-0.255000	-160.147433	-5.066637	-73.570646	0.068180	-0.170907	-0.036347	105.721407	9.099966	0.187597	9.812941	11.470509	-27.291814	-42.461970	28.779945	6.689977	43.884197	30.115861	23.568517	4.155719	44.833965	30.069618	13.437325	-4.167311	51.850391	36.027812	0.677794	-7.599574	61.680948	42.601909
-0.245000	-160.147433	-5.066637	-73.570646	0.066751	-0.169016	-0.039499	105.840479	10.386659	-0.031207	9.413106	11.609514	-27.299383	-42.344123	28.615380	6.569038	43.860614	30.045745	23.607892	4.108886	44.642446	29.921809	13.624556	-4.079032	51.471152	35.835538	0.698617	-7.416205	61.451224	42.375158
-0.235000	-160.147433	-5.066637	-73.570646	0.064975	-0.166746	-0.042973	105.857853	11.864813	-0.439591	8.924024	11.791784	-27.191928	-42.055055	28.507259	6.441231	43.752615	29.929760	23.717592	4.053004	44.380962	29.745542	13.949100	-3.992631	50.948923	35.617811	0.926660	-7.221627	61.050982	42.060130
-0.225000	-160.147433	-5.066637	-73.570646	0.062809	-0.164052	-0.046787	105.802135	13.505378	-1.084706	8.355264	12.080220	-26.968763	-41.603260	28.450833	6.316544	43.535876	29.760804	23.894776	3.989177	44.023739	29.532974	14.426850	-3.909174	50.240407	35.364489	1.385782	-7.041396	60.446011	41.655322
-0.215000	-160.147433	-5.066637	-73.570646	0.060216	-0.160911	-0.050959	105.720793	15.267461	-1.999762	7.736934	12.565978	-26.666791	-41.048123	28.427000	6.207732	43.199505	29.536611	24.108870	3.919822	43.575203	29.288293	15.032445	-3.826448	49.339265	35.072449	2.040038	-6.913842	59.644771	41.183067
-0.205000	-160.147433	-5.066637	-73.570646	0.057164	-0.157333	-0.055480	105.680326	17.106599	-3.196844	7.115142	13.346902	-26.350520	-40.487472	28.413124	6.123472	42.756819	29.264329	24.312997	3.849138	43.072248	29.028660	15.710638	-3.743769	48.285865	34.752047	2.806109	-6.878496	58.703352	40.689559
-0.195000	-160.147433	-5.066637	-73.570646	0.053627	-0.153358	-0.060303	105.755105	18.986870	-4.668692	6.537395	14.494700	-26.084781	-40.021569	28.399784	6.061424	42.251566	28.966164	24.470484	3.783305	42.573474	28.781586	16.405913	-3.666759	47.161710	34.432179	3.593797	-6.954062	57.706862	40.234949
-0.185000	-160.147433	-5.066637	-73.570646	0.049577	-0.149051	-0.065351	106.004680	20.887381	-6.397182	6.036233	16.024581	-25.901942	-39.709158	28.400052	6.006925	41.757093	28.683458	24.579129	3.729664	42.144658	28.581338	17.089710	-3.608462	46.075962	34.162126	4.354894	-7.116649	56.735010	39.874868
-0.175000	-160.147433	-5.066637	-73.570646	0.044995	-0.144507	-0.070526	106.451492	22.793917	-8.360786	5.622857	17.883685	-25.781338	-39.541430	28.437763	5.939343	41.366904	28.475152	24.670610	3.694047	41.850068	28.466131	17.761906	-3.585124	45.151960	34.006469	5.108470	-7.294476	55.834188	39.641088
-0.165000	-160.147433	-5.066637	-73.570646	0.039886	-0.139864	-0.075719	107.077667	24.676761	-10.535636	5.297256	19.969773	-25.653621	-39.453796	28.513953	5.841610	41.174225	28.405465	24.774497	3.676358	41.749305	28.473754	18.419315	-3.608177	44.511616	34.028228	5.918428	-7.388241	55.015916	39.529999
-0.155000	-160.147433	-5.066637	-73.570646	0.034288	-0.135301	-0.080812	107.851248	26.468486	-12.891114	5.070149	22.177189	-25.429138	-39.373733	28.568683	5.705012	41.239120	28.517539	24.861183	3.666140	41.888075	28.630026	19.008835	-3.676507	44.246775	34.258489	6.826040	-7.309052	54.280174	39.501407
-0.145000	-160.147433	-5.066637	-73.570646	0.028248	-0.131018	-0.085699	108.770761	28.059029	-15.382600	4.982703	24.446147	-25.036289	-39.278792	28.464775	5.525013	41.549402	28.798340	24.800200	3.641273	42.271903	28.927552	19.397900	-3.773243	44.373651	34.660150	7.770826	-7.012497	53.641125	39.484505
-0.135000	-160.147433	-5.066637	-73.570646	0.021780	-0.127195	-0.090320	109.897630	29.316118	-17.939858	5.108486	26.778042	-24.451208	-39.227443	28.012793	5.292644	41.995290	29.153405	24.373549	3.573100	42.829100	29.303082	19.390649	-3.869146	44.789188	35.105146	8.549952	-6.511273	53.133589	39.390407
-0.125000	-160.147433	-5.066637	-73.570646	0.014853	-0.123952	-0.094684	111.346044	30.124630	-20.448810	5.528687	29.192503	-23.705804	-39.336151	27.037049	4.992744	42.387205	29.419179	23.362307	3.439468	43.392873	29.633767	18.799448	-3.931907	45.268363	35.390594	8.859310	-5.867144	52.800287	39.138351
-0.115000	-160.147433	-5.066637	-73.570646	0.007418	-0.121352	-0.098853	113.222852	30.428586	-22.733897	6.283496	31.643495	-22.873781	-39.707692	25.460348	4.618106	42.537298	29.433495	21.685635	3.243007	43.741131	29.774101	17.555797	-3.938628	45.537296	35.311285	8.426565	-5.178148	52.680164	38.703451
